<?xml version="1.0" encoding="utf-8"?>
<!-- Generator: Adobe Illustrator 16.0.0, SVG Export Plug-In . SVG Version: 6.00 Build 0)  -->
<!DOCTYPE svg PUBLIC "-//W3C//DTD SVG 1.1//EN" "http://www.w3.org/Graphics/SVG/1.1/DTD/svg11.dtd">
<svg version="1.1" id="Picture_Frame_1_" xmlns="http://www.w3.org/2000/svg" xmlns:xlink="http://www.w3.org/1999/xlink" x="0px"
	 y="0px" width="512px" height="512px" viewBox="0 0 512 512" enable-background="new 0 0 512 512" xml:space="preserve">
<circle id="Background" fill="#FEE6A0" cx="256" cy="256" r="256"/>
<path id="Shadow" opacity="0.1" fill="#231F20" d="M501.848,327.565L351.855,177.574H290L259.672,147h-5.005l-34.333,35
	l-60.189,0.745v186.54l139.066,139.066C396.32,491.84,474.796,420.651,501.848,327.565z"/>
<g id="Picture_Frame">
	<g>
		<g>
			
				<rect x="234.573" y="136.674" transform="matrix(0.7071 0.7071 -0.7071 0.7071 188.0581 -117.8292)" opacity="0.1" fill="#231F20" width="3.377" height="62.836"/>
			
				<rect x="231.871" y="136.674" transform="matrix(0.707 0.7072 -0.7072 0.707 187.2957 -115.9234)" fill="#FFFFFF" width="3.377" height="62.836"/>
			
				<rect x="278.691" y="136.674" transform="matrix(-0.707 0.7072 -0.7072 -0.707 597.4882 88.6596)" fill="#FFFFFF" width="3.377" height="62.836"/>
		</g>
		<g>
			<circle fill="#414042" cx="256.969" cy="149.298" r="6.582"/>
			<path opacity="0.2" fill="#FFFFFF" d="M258.623,144.37c1.396,0,2.685,0.44,3.749,1.18c-1.188-1.71-3.162-2.834-5.402-2.834
				c-3.636,0-6.583,2.947-6.583,6.582c0,2.241,1.124,4.214,2.834,5.403c-0.74-1.065-1.18-2.354-1.18-3.749
				C252.041,147.316,254.988,144.37,258.623,144.37z"/>
		</g>
	</g>
	<g>
		<polygon fill="#BE323E" points="160.145,177.574 160.145,369.284 160.145,369.284 351.855,369.284 351.855,369.284 
			351.855,177.574 		"/>
		<polygon opacity="0.1" fill="#231F20" points="351.855,369.284 351.855,177.574 256,273.429 		"/>
		<polygon opacity="0.2" fill="#231F20" points="256,273.429 160.145,369.284 160.145,369.284 351.855,369.284 351.855,369.284 		
			"/>
		<polygon opacity="0.1" fill="#231F20" points="160.145,177.574 160.145,369.284 256,273.429 		"/>
	</g>
	<g>
		<rect x="187.004" y="204.434" fill="#F1F2F2" width="137.992" height="137.991"/>
		<polygon opacity="0.1" fill="#231F20" points="187.004,204.434 187.004,342.425 191.231,342.425 191.231,208.661 324.996,208.661 
			324.996,204.434 		"/>
	</g>
	<g>
		<rect x="206.233" y="223.663" fill="#9B8579" width="99.533" height="99.533"/>
		<polygon opacity="0.1" fill="#231F20" points="206.233,223.663 206.233,323.195 209.283,323.195 209.283,226.712 305.767,226.712 
			305.767,223.663 		"/>
	</g>
</g>
</svg>
